<svg class="diagram-root" style="background: #f5f6f6" xmlns="http://www.w3.org/2000/svg" xmlns:xlink="http://www.w3.org/1999/xlink"><style>.diagram-root { font-family: "Helvetica Neue", sans-serif; font-size: 12px; } .t { overflow: visible; } .t-bg { y: 40; fill: #fff;   } .th { fill: #005aa0;   } .tht { fill: #fff; font-size: 14px;  } .tf { fill: #323c46; overflow: visible; } .tf.pk { fill: #005aa0; font-weight: bold; } .tf.fk { font-weight: bold; } .ty { fill: #adb1b5; font-weight: normal; text-anchor: end; } .r { fill: transparent; stroke: #c3c3c3; stroke-width: 1; } .l { stroke: 1; } .i { fill: #c2c7ce; stroke: #c2c7ce; } .i.ix { fill: #afb3b6; stroke: #000; } .fa { fill: transparent; overflow: visible; } .fa .bg.hover { fill: #f7f7f7; } .c { cy: 12; r: 4; stroke: #d2d2dc; fill: #d2d2dc; } .hr { fill: transparent; stroke: #323c46; stroke-opacity: 0.035; stroke-width: 13; } .dc { stroke: #fa5a3c; fill: #fa5a3c; } .x { stroke: white; stroke-width: 1; } .hl .th { fill: #1b9bff; } .hl .tht {  } .fhl .bg { fill: #e7f4ff; } .fhls .bg {  } .r.hl { stroke: #1b9bff; } .dim { opacity: 0.25; }</style><g class="drawing-wrapper" transform="translate(-9, 13) scale(1,1)"><g class="rs"><path d="M 494 133 m -1, 0 a 1,1 0 1,0 2,0 a 1,1 0 1,0 -2,0 M 494 133 m -0.5, 0 a 0.5,0.5 0 1,0 1,0 a 0.5,0.5 0 1,0 -1,0  M494 133 L494 133 506 133 M 494 139 m -1, 0 a 1,1 0 1,0 2,0 a 1,1 0 1,0 -2,0 M 494 139 m -0.5, 0 a 0.5,0.5 0 1,0 1,0 a 0.5,0.5 0 1,0 -1,0  M494 139 L494 139 501 133 494 127 M 494 127 m -1, 0 a 1,1 0 1,0 2,0 a 1,1 0 1,0 -2,0 M 494 127 m -0.5, 0 a 0.5,0.5 0 1,0 1,0 a 0.5,0.5 0 1,0 -1,0  M506 133 Q 524.5 133, 543 202 T 580 271 M 592 271 m -1, 0 a 1,1 0 1,0 2,0 a 1,1 0 1,0 -2,0 M 592 271 m -0.5, 0 a 0.5,0.5 0 1,0 1,0 a 0.5,0.5 0 1,0 -1,0  M592 271 L592 271 580 271 M586 277 L586 277 586 265" id="h278005792" class="r"></path><path d="M 311 158 m -1, 0 a 1,1 0 1,0 2,0 a 1,1 0 1,0 -2,0 M 311 158 m -0.5, 0 a 0.5,0.5 0 1,0 1,0 a 0.5,0.5 0 1,0 -1,0  M311 158 L311 158 299 158 M 311 164 m -1, 0 a 1,1 0 1,0 2,0 a 1,1 0 1,0 -2,0 M 311 164 m -0.5, 0 a 0.5,0.5 0 1,0 1,0 a 0.5,0.5 0 1,0 -1,0  M311 164 L311 164 304 158 311 152 M 311 152 m -1, 0 a 1,1 0 1,0 2,0 a 1,1 0 1,0 -2,0 M 311 152 m -0.5, 0 a 0.5,0.5 0 1,0 1,0 a 0.5,0.5 0 1,0 -1,0  M299 158 Q 280.75 158, 262.5 116 T 226 74 M 214 74 m -1, 0 a 1,1 0 1,0 2,0 a 1,1 0 1,0 -2,0 M 214 74 m -0.5, 0 a 0.5,0.5 0 1,0 1,0 a 0.5,0.5 0 1,0 -1,0  M214 74 L214 74 226 74 M220 80 L220 80 220 68" id="h994880798" class="r"></path><path d="M 592 321 m -1, 0 a 1,1 0 1,0 2,0 a 1,1 0 1,0 -2,0 M 592 321 m -0.5, 0 a 0.5,0.5 0 1,0 1,0 a 0.5,0.5 0 1,0 -1,0  M592 321 L592 321 580 321 M 592 327 m -1, 0 a 1,1 0 1,0 2,0 a 1,1 0 1,0 -2,0 M 592 327 m -0.5, 0 a 0.5,0.5 0 1,0 1,0 a 0.5,0.5 0 1,0 -1,0  M592 327 L592 327 585 321 592 315 M 592 315 m -1, 0 a 1,1 0 1,0 2,0 a 1,1 0 1,0 -2,0 M 592 315 m -0.5, 0 a 0.5,0.5 0 1,0 1,0 a 0.5,0.5 0 1,0 -1,0  M580 321 Q 547.25 321, 514.5 384.5 T 449 448 M 437 448 m -1, 0 a 1,1 0 1,0 2,0 a 1,1 0 1,0 -2,0 M 437 448 m -0.5, 0 a 0.5,0.5 0 1,0 1,0 a 0.5,0.5 0 1,0 -1,0  M437 448 L437 448 449 448 M443 454 L443 454 443 442" id="h3139126193" class="r"></path><path d="M 769 346 m -1, 0 a 1,1 0 1,0 2,0 a 1,1 0 1,0 -2,0 M 769 346 m -0.5, 0 a 0.5,0.5 0 1,0 1,0 a 0.5,0.5 0 1,0 -1,0  M769 346 L769 346 781 346 M 769 352 m -1, 0 a 1,1 0 1,0 2,0 a 1,1 0 1,0 -2,0 M 769 352 m -0.5, 0 a 0.5,0.5 0 1,0 1,0 a 0.5,0.5 0 1,0 -1,0  M769 352 L769 352 776 346 769 340 M 769 340 m -1, 0 a 1,1 0 1,0 2,0 a 1,1 0 1,0 -2,0 M 769 340 m -0.5, 0 a 0.5,0.5 0 1,0 1,0 a 0.5,0.5 0 1,0 -1,0  M781 346 C 1216.6 346, 1072 481, 1022 481 M 1010 481 m -1, 0 a 1,1 0 1,0 2,0 a 1,1 0 1,0 -2,0 M 1010 481 m -0.5, 0 a 0.5,0.5 0 1,0 1,0 a 0.5,0.5 0 1,0 -1,0  M1010 481 L1010 481 1022 481 M1016 487 L1016 487 1016 475" id="h2046791023" class="r"></path></g><g class="hrs"></g><g class="ts"><svg width="183" height="100" x="31" y="17" id="h2948373614" class="t"><rect height="40" width="183" class="th"></rect><text x="13" y="25" class="tht">users</text><rect height="60" width="183" class="t-bg" y="40"></rect><text x="13" y="61" class="tf pk">username<tspan x="170" class="ty">string(256)</tspan></text><path d="M7,14A2,2 0 0,1 5,12A2,2 0 0,1 7,10A2,2 0 0,1 9,12A2,2 0 0,1 7,14M12.65,10C11.83,7.67 9.61,6 7, 6A6, 6 0 0, 0 1, 12A6, 6 0 0, 0 7, 18C9.61, 18 11.83, 16.33 12.65, 14H17V18H21V14H23V10H12.65Z" class="i pk" transform="translate(90, 48) scale(0.65)"></path><text x="13" y="86" class="tf">password<tspan x="170" class="ty">string(256)</tspan></text></svg><svg width="183" height="100" x="311" y="76" id="h1512418665" class="t"><rect height="40" width="183" class="th"></rect><text x="13" y="25" class="tht">user_tasks</text><rect height="60" width="183" class="t-bg" y="40"></rect><text x="13" y="61" class="tf pk">task_id<tspan x="170" class="ty">string(256)</tspan></text><path d="M7,14A2,2 0 0,1 5,12A2,2 0 0,1 7,10A2,2 0 0,1 9,12A2,2 0 0,1 7,14M12.65,10C11.83,7.67 9.61,6 7, 6A6, 6 0 0, 0 1, 12A6, 6 0 0, 0 7, 18C9.61, 18 11.83, 16.33 12.65, 14H17V18H21V14H23V10H12.65Z" class="i pk" transform="translate(90, 48) scale(0.65)"></path><text x="13" y="86" class="tf pk">username<tspan x="170" class="ty">string(256)</tspan></text><path d="M7,14A2,2 0 0,1 5,12A2,2 0 0,1 7,10A2,2 0 0,1 9,12A2,2 0 0,1 7,14M12.65,10C11.83,7.67 9.61,6 7, 6A6, 6 0 0, 0 1, 12A6, 6 0 0, 0 7, 18C9.61, 18 11.83, 16.33 12.65, 14H17V18H21V14H23V10H12.65Z" class="i pk" transform="translate(90, 73) scale(0.65)"></path></svg><svg width="177" height="175" x="592" y="214" id="h3843145720" class="t"><rect height="40" width="177" class="th"></rect><text x="13" y="25" class="tht">tasks</text><rect height="135" width="177" class="t-bg" y="40"></rect><text x="13" y="61" class="tf pk">task_id<tspan x="164" class="ty">string(36)</tspan></text><path d="M7,14A2,2 0 0,1 5,12A2,2 0 0,1 7,10A2,2 0 0,1 9,12A2,2 0 0,1 7,14M12.65,10C11.83,7.67 9.61,6 7, 6A6, 6 0 0, 0 1, 12A6, 6 0 0, 0 7, 18C9.61, 18 11.83, 16.33 12.65, 14H17V18H21V14H23V10H12.65Z" class="i pk" transform="translate(91, 48) scale(0.65)"></path><text x="13" y="86" class="tf">task<tspan x="164" class="ty">string(256)</tspan></text><text x="13" y="111" class="tf fk">description_id<tspan x="164" class="ty">string(36)</tspan></text><text x="13" y="136" class="tf fk">status_id<tspan x="164" class="ty">string(36)</tspan></text><text x="13" y="161" class="tf">end_time<tspan x="164" class="ty">time</tspan></text></svg><svg width="170" height="100" x="840" y="424" id="h2894167269" class="t"><rect height="40" width="170" class="th"></rect><text x="13" y="25" class="tht">status_types</text><rect height="60" width="170" class="t-bg" y="40"></rect><text x="13" y="61" class="tf pk">status_id<tspan x="157" class="ty">string(36)</tspan></text><path d="M7,14A2,2 0 0,1 5,12A2,2 0 0,1 7,10A2,2 0 0,1 9,12A2,2 0 0,1 7,14M12.65,10C11.83,7.67 9.61,6 7, 6A6, 6 0 0, 0 1, 12A6, 6 0 0, 0 7, 18C9.61, 18 11.83, 16.33 12.65, 14H17V18H21V14H23V10H12.65Z" class="i pk" transform="translate(84, 48) scale(0.65)"></path><text x="13" y="86" class="tf">status<tspan x="157" class="ty">string(256)</tspan></text></svg><svg width="197" height="100" x="240" y="391" id="h837993047" class="t"><rect height="40" width="197" class="th"></rect><text x="13" y="25" class="tht">descriptions</text><rect height="60" width="197" class="t-bg" y="40"></rect><text x="13" y="61" class="tf pk">description_id<tspan x="184" class="ty">string(36)</tspan></text><path d="M7,14A2,2 0 0,1 5,12A2,2 0 0,1 7,10A2,2 0 0,1 9,12A2,2 0 0,1 7,14M12.65,10C11.83,7.67 9.61,6 7, 6A6, 6 0 0, 0 1, 12A6, 6 0 0, 0 7, 18C9.61, 18 11.83, 16.33 12.65, 14H17V18H21V14H23V10H12.65Z" class="i pk" transform="translate(111, 48) scale(0.65)"></path><text x="13" y="86" class="tf pk">description<tspan x="184" class="ty">string(1000)</tspan></text><path d="M7,14A2,2 0 0,1 5,12A2,2 0 0,1 7,10A2,2 0 0,1 9,12A2,2 0 0,1 7,14M12.65,10C11.83,7.67 9.61,6 7, 6A6, 6 0 0, 0 1, 12A6, 6 0 0, 0 7, 18C9.61, 18 11.83, 16.33 12.65, 14H17V18H21V14H23V10H12.65Z" class="i pk" transform="translate(97, 73) scale(0.65)"></path></svg></g></g><text class="qdbd-link" x="10" y="20">www.quickdatabasediagrams.com</text></svg>